<svg xmlns="http://www.w3.org/2000/svg" width="24" height="24" viewBox="0 0 243.75 243" version="1.0">
<defs>
    <clipPath id="music_icon">
    <path d="M.719.125H243.5v242.75H.719zm0 0"/>
    </clipPath>
    <clipPath id="b">
    <path d="M38.969.125h166.5a38.253 38.253 0 0 1 38.25 38.25v166.5a38.253 38.253 0 0 1-38.25 38.25h-166.5a38.253 38.253 0 0 1-38.25-38.25v-166.5A38.253 38.253 0 0 1 38.969.125"/>
    </clipPath>
    <clipPath id="d">
    <path d="M31 25h166.984v194.215H31zm0 0"/>
    </clipPath>
    <clipPath id="e">
    <path d="m167.8 120.695-63.003-16.91v56.805l-.332 1.742-.113.262c-2.516 6.86-5.59 13.61-10.446 19.168-5.738 6.675-12.96 10.496-21.554 12.09h-.149l-.812.109h-.114c-7.89.148-15.668-1.406-22.445-5.559-6.223-3.859-10.816-9.308-14.258-15.687l-.074-.149-.336-.738v-.074c-2.96-8.383-4.148-17.281-1.777-25.957 2.297-8.344 7.52-14.98 14.336-20.207l.148-.113.664-.407.113-.074c5.555-2.969 11.59-4.785 17.926-4.82 2.817-.04 5.63.297 8.371.965l-.37-79.094v-.11c.48-6.675 2.964-12.867 9.405-15.574 5.114-2.148 11-1.148 16.04.633l85.449 22.914.554.184.075.039c4.851 1.89 8.668 4.969 10.777 9.824 2.074 4.82 2 10.273 1.926 15.39v2.15l-.184 109.53-.148 1.301-.074.223c-2.223 8.191-6.63 15.98-12.965 21.691-6.035 5.45-13.48 8.711-21.668 8.785-15.48.188-28.703-7.23-34.817-21.726-2.777-6.563-3.664-13.867-2.664-20.914 1-7.117 3.926-13.907 8.778-19.242 8.886-9.79 21.406-12.239 33.851-10.2zm-.113-21.394-62.89-16.242v6.968l62.93 16.871zm-62.89-29.961 62.816 16.238-.035-4.707L104.797 64zM70.46 180.687c5.336-1.113 9.816-3.41 13.41-7.601 3.445-3.965 5.777-9.082 7.629-13.977V46.684l89.3 23.953.223 44.531c.036.262.036.484 0 .707l.258 48.61-8.703-2.743c-9.594-3.078-21.297-3.82-28.703 4.336-3.04 3.375-4.816 7.715-5.445 12.164-.668 4.672-.114 9.567 1.738 13.903 3.965 9.382 12.559 13.718 22.484 13.609 4.887-.04 9.297-2.113 12.887-5.375 4.223-3.82 7.188-9.086 8.816-14.5l.188-108.383v-2.262c.035-3.004.219-7.785-1.41-10.418-.63-1.039-1.516-1.707-2.59-2.187l-85.19-22.844-.407-.148c-1.554-.555-5.183-1.703-6.816-1.035-.852.37-1.184 3.187-1.258 4.078l.406 99.484-9.886-5.488c-3.633-2.004-7.559-3.266-11.743-3.227-3.964.035-7.742 1.223-11.261 3.004-4.258 3.375-7.739 7.563-9.184 12.867-1.594 5.746-.594 11.903 1.297 17.465 2.258 4.113 5.258 7.785 9.297 10.305 4.406 2.707 9.52 3.637 14.664 3.597zm0 0" clip-rule="evenodd"/>
    </clipPath>
    <linearGradient x1="0" gradientTransform="translate(.719 .124) scale(.94922)" y1="0" x2="255.754" gradientUnits="userSpaceOnUse" y2="255.754" id="c">
    <stop stop-color="#5170FF" offset="0"/>
    <stop stop-color="#5270FF" offset=".004"/>
    <stop stop-color="#5270FF" offset=".008"/>
    <stop stop-color="#5370FE" offset=".012"/>
    <stop stop-color="#5470FE" offset=".016"/>
    <stop stop-color="#5470FE" offset=".02"/>
    <stop stop-color="#5570FE" offset=".023"/>
    <stop stop-color="#5670FD" offset=".027"/>
    <stop stop-color="#5770FD" offset=".031"/>
    <stop stop-color="#5770FD" offset=".035"/>
    <stop stop-color="#5870FD" offset=".039"/>
    <stop stop-color="#5970FC" offset=".043"/>
    <stop stop-color="#596FFC" offset=".047"/>
    <stop stop-color="#5A6FFC" offset=".051"/>
    <stop stop-color="#5B6FFC" offset=".055"/>
    <stop stop-color="#5B6FFC" offset=".059"/>
    <stop stop-color="#5C6FFB" offset=".063"/>
    <stop stop-color="#5D6FFB" offset=".066"/>
    <stop stop-color="#5D6FFB" offset=".07"/>
    <stop stop-color="#5E6FFB" offset=".074"/>
    <stop stop-color="#5F6FFA" offset=".078"/>
    <stop stop-color="#5F6FFA" offset=".082"/>
    <stop stop-color="#606FFA" offset=".086"/>
    <stop stop-color="#616FFA" offset=".09"/>
    <stop stop-color="#616FF9" offset=".094"/>
    <stop stop-color="#626FF9" offset=".098"/>
    <stop stop-color="#636FF9" offset=".102"/>
    <stop stop-color="#636FF9" offset=".105"/>
    <stop stop-color="#646FF9" offset=".109"/>
    <stop stop-color="#656FF8" offset=".113"/>
    <stop stop-color="#656FF8" offset=".117"/>
    <stop stop-color="#666FF8" offset=".121"/>
    <stop stop-color="#676FF8" offset=".125"/>
    <stop stop-color="#676FF7" offset=".129"/>
    <stop stop-color="#686FF7" offset=".133"/>
    <stop stop-color="#696FF7" offset=".137"/>
    <stop stop-color="#6A6FF7" offset=".141"/>
    <stop stop-color="#6A6FF6" offset=".145"/>
    <stop stop-color="#6B6EF6" offset=".148"/>
    <stop stop-color="#6C6EF6" offset=".152"/>
    <stop stop-color="#6C6EF6" offset=".156"/>
    <stop stop-color="#6D6EF6" offset=".16"/>
    <stop stop-color="#6E6EF5" offset=".164"/>
    <stop stop-color="#6E6EF5" offset=".168"/>
    <stop stop-color="#6F6EF5" offset=".172"/>
    <stop stop-color="#706EF5" offset=".176"/>
    <stop stop-color="#706EF4" offset=".18"/>
    <stop stop-color="#716EF4" offset=".184"/>
    <stop stop-color="#726EF4" offset=".188"/>
    <stop stop-color="#726EF4" offset=".191"/>
    <stop stop-color="#736EF4" offset=".195"/>
    <stop stop-color="#746EF3" offset=".199"/>
    <stop stop-color="#746EF3" offset=".203"/>
    <stop stop-color="#756EF3" offset=".207"/>
    <stop stop-color="#766EF3" offset=".211"/>
    <stop stop-color="#766EF2" offset=".215"/>
    <stop stop-color="#776EF2" offset=".219"/>
    <stop stop-color="#786EF2" offset=".223"/>
    <stop stop-color="#786EF2" offset=".227"/>
    <stop stop-color="#796EF1" offset=".23"/>
    <stop stop-color="#7A6EF1" offset=".234"/>
    <stop stop-color="#7A6EF1" offset=".238"/>
    <stop stop-color="#7B6EF1" offset=".242"/>
    <stop stop-color="#7C6DF1" offset=".246"/>
    <stop stop-color="#7D6DF0" offset=".25"/>
    <stop stop-color="#7D6DF0" offset=".254"/>
    <stop stop-color="#7E6DF0" offset=".258"/>
    <stop stop-color="#7F6DF0" offset=".262"/>
    <stop stop-color="#7F6DEF" offset=".266"/>
    <stop stop-color="#806DEF" offset=".27"/>
    <stop stop-color="#816DEF" offset=".273"/>
    <stop stop-color="#816DEF" offset=".277"/>
    <stop stop-color="#826DEE" offset=".281"/>
    <stop stop-color="#836DEE" offset=".285"/>
    <stop stop-color="#836DEE" offset=".289"/>
    <stop stop-color="#846DEE" offset=".293"/>
    <stop stop-color="#856DEE" offset=".297"/>
    <stop stop-color="#856DED" offset=".301"/>
    <stop stop-color="#866DED" offset=".305"/>
    <stop stop-color="#876DED" offset=".309"/>
    <stop stop-color="#876DED" offset=".313"/>
    <stop stop-color="#886DEC" offset=".316"/>
    <stop stop-color="#896DEC" offset=".32"/>
    <stop stop-color="#896DEC" offset=".324"/>
    <stop stop-color="#8A6DEC" offset=".328"/>
    <stop stop-color="#8B6DEB" offset=".332"/>
    <stop stop-color="#8B6DEB" offset=".336"/>
    <stop stop-color="#8C6DEB" offset=".34"/>
    <stop stop-color="#8D6DEB" offset=".344"/>
    <stop stop-color="#8D6CEB" offset=".348"/>
    <stop stop-color="#8E6CEA" offset=".352"/>
    <stop stop-color="#8F6CEA" offset=".355"/>
    <stop stop-color="#906CEA" offset=".359"/>
    <stop stop-color="#906CEA" offset=".363"/>
    <stop stop-color="#916CE9" offset=".367"/>
    <stop stop-color="#926CE9" offset=".371"/>
    <stop stop-color="#926CE9" offset=".375"/>
    <stop stop-color="#936CE9" offset=".379"/>
    <stop stop-color="#946CE8" offset=".383"/>
    <stop stop-color="#946CE8" offset=".387"/>
    <stop stop-color="#956CE8" offset=".391"/>
    <stop stop-color="#966CE8" offset=".395"/>
    <stop stop-color="#966CE8" offset=".398"/>
    <stop stop-color="#976CE7" offset=".402"/>
    <stop stop-color="#986CE7" offset=".406"/>
    <stop stop-color="#986CE7" offset=".41"/>
    <stop stop-color="#996CE7" offset=".414"/>
    <stop stop-color="#9A6CE6" offset=".418"/>
    <stop stop-color="#9A6CE6" offset=".422"/>
    <stop stop-color="#9B6CE6" offset=".426"/>
    <stop stop-color="#9C6CE6" offset=".43"/>
    <stop stop-color="#9C6CE5" offset=".434"/>
    <stop stop-color="#9D6CE5" offset=".438"/>
    <stop stop-color="#9E6CE5" offset=".441"/>
    <stop stop-color="#9E6CE5" offset=".445"/>
    <stop stop-color="#9F6BE5" offset=".449"/>
    <stop stop-color="#A06BE4" offset=".453"/>
    <stop stop-color="#A06BE4" offset=".457"/>
    <stop stop-color="#A16BE4" offset=".461"/>
    <stop stop-color="#A26BE4" offset=".465"/>
    <stop stop-color="#A36BE3" offset=".469"/>
    <stop stop-color="#A36BE3" offset=".473"/>
    <stop stop-color="#A46BE3" offset=".477"/>
    <stop stop-color="#A56BE3" offset=".48"/>
    <stop stop-color="#A56BE2" offset=".484"/>
    <stop stop-color="#A66BE2" offset=".488"/>
    <stop stop-color="#A76BE2" offset=".492"/>
    <stop stop-color="#A76BE2" offset=".496"/>
    <stop stop-color="#A86BE2" offset=".5"/>
    <stop stop-color="#A96BE1" offset=".504"/>
    <stop stop-color="#A96BE1" offset=".508"/>
    <stop stop-color="#AA6BE1" offset=".512"/>
    <stop stop-color="#AB6BE1" offset=".516"/>
    <stop stop-color="#AB6BE0" offset=".52"/>
    <stop stop-color="#AC6BE0" offset=".523"/>
    <stop stop-color="#AD6BE0" offset=".527"/>
    <stop stop-color="#AD6BE0" offset=".531"/>
    <stop stop-color="#AE6BE0" offset=".535"/>
    <stop stop-color="#AF6BDF" offset=".539"/>
    <stop stop-color="#AF6BDF" offset=".543"/>
    <stop stop-color="#B06BDF" offset=".547"/>
    <stop stop-color="#B16ADF" offset=".551"/>
    <stop stop-color="#B16ADE" offset=".555"/>
    <stop stop-color="#B26ADE" offset=".559"/>
    <stop stop-color="#B36ADE" offset=".563"/>
    <stop stop-color="#B36ADE" offset=".566"/>
    <stop stop-color="#B46ADD" offset=".57"/>
    <stop stop-color="#B56ADD" offset=".574"/>
    <stop stop-color="#B66ADD" offset=".578"/>
    <stop stop-color="#B66ADD" offset=".582"/>
    <stop stop-color="#B76ADD" offset=".586"/>
    <stop stop-color="#B86ADC" offset=".59"/>
    <stop stop-color="#B86ADC" offset=".594"/>
    <stop stop-color="#B96ADC" offset=".598"/>
    <stop stop-color="#BA6ADC" offset=".602"/>
    <stop stop-color="#BA6ADB" offset=".605"/>
    <stop stop-color="#BB6ADB" offset=".609"/>
    <stop stop-color="#BC6ADB" offset=".613"/>
    <stop stop-color="#BC6ADB" offset=".617"/>
    <stop stop-color="#BD6ADA" offset=".621"/>
    <stop stop-color="#BE6ADA" offset=".625"/>
    <stop stop-color="#BE6ADA" offset=".629"/>
    <stop stop-color="#BF6ADA" offset=".633"/>
    <stop stop-color="#C06ADA" offset=".637"/>
    <stop stop-color="#C06AD9" offset=".641"/>
    <stop stop-color="#C16AD9" offset=".645"/>
    <stop stop-color="#C26AD9" offset=".648"/>
    <stop stop-color="#C269D9" offset=".652"/>
    <stop stop-color="#C369D8" offset=".656"/>
    <stop stop-color="#C469D8" offset=".66"/>
    <stop stop-color="#C469D8" offset=".664"/>
    <stop stop-color="#C569D8" offset=".668"/>
    <stop stop-color="#C669D7" offset=".672"/>
    <stop stop-color="#C669D7" offset=".676"/>
    <stop stop-color="#C769D7" offset=".68"/>
    <stop stop-color="#C869D7" offset=".684"/>
    <stop stop-color="#C969D7" offset=".688"/>
    <stop stop-color="#C969D6" offset=".691"/>
    <stop stop-color="#CA69D6" offset=".695"/>
    <stop stop-color="#CB69D6" offset=".699"/>
    <stop stop-color="#CB69D6" offset=".703"/>
    <stop stop-color="#CC69D5" offset=".707"/>
    <stop stop-color="#CD69D5" offset=".711"/>
    <stop stop-color="#CD69D5" offset=".715"/>
    <stop stop-color="#CE69D5" offset=".719"/>
    <stop stop-color="#CF69D4" offset=".723"/>
    <stop stop-color="#CF69D4" offset=".727"/>
    <stop stop-color="#D069D4" offset=".73"/>
    <stop stop-color="#D169D4" offset=".734"/>
    <stop stop-color="#D169D4" offset=".738"/>
    <stop stop-color="#D269D3" offset=".742"/>
    <stop stop-color="#D369D3" offset=".746"/>
    <stop stop-color="#D368D3" offset=".75"/>
    <stop stop-color="#D468D3" offset=".754"/>
    <stop stop-color="#D568D2" offset=".758"/>
    <stop stop-color="#D568D2" offset=".762"/>
    <stop stop-color="#D668D2" offset=".766"/>
    <stop stop-color="#D768D2" offset=".77"/>
    <stop stop-color="#D768D1" offset=".773"/>
    <stop stop-color="#D868D1" offset=".777"/>
    <stop stop-color="#D968D1" offset=".781"/>
    <stop stop-color="#DA68D1" offset=".785"/>
    <stop stop-color="#DA68D1" offset=".789"/>
    <stop stop-color="#DB68D0" offset=".793"/>
    <stop stop-color="#DC68D0" offset=".797"/>
    <stop stop-color="#DC68D0" offset=".801"/>
    <stop stop-color="#DD68D0" offset=".805"/>
    <stop stop-color="#DE68CF" offset=".809"/>
    <stop stop-color="#DE68CF" offset=".813"/>
    <stop stop-color="#DF68CF" offset=".816"/>
    <stop stop-color="#E068CF" offset=".82"/>
    <stop stop-color="#E068CE" offset=".824"/>
    <stop stop-color="#E168CE" offset=".828"/>
    <stop stop-color="#E268CE" offset=".832"/>
    <stop stop-color="#E268CE" offset=".836"/>
    <stop stop-color="#E368CE" offset=".84"/>
    <stop stop-color="#E468CD" offset=".844"/>
    <stop stop-color="#E468CD" offset=".848"/>
    <stop stop-color="#E567CD" offset=".852"/>
    <stop stop-color="#E667CD" offset=".855"/>
    <stop stop-color="#E667CC" offset=".859"/>
    <stop stop-color="#E767CC" offset=".863"/>
    <stop stop-color="#E867CC" offset=".867"/>
    <stop stop-color="#E867CC" offset=".871"/>
    <stop stop-color="#E967CC" offset=".875"/>
    <stop stop-color="#EA67CB" offset=".879"/>
    <stop stop-color="#EA67CB" offset=".883"/>
    <stop stop-color="#EB67CB" offset=".887"/>
    <stop stop-color="#EC67CB" offset=".891"/>
    <stop stop-color="#ED67CA" offset=".895"/>
    <stop stop-color="#ED67CA" offset=".898"/>
    <stop stop-color="#EE67CA" offset=".902"/>
    <stop stop-color="#EF67CA" offset=".906"/>
    <stop stop-color="#EF67C9" offset=".91"/>
    <stop stop-color="#F067C9" offset=".914"/>
    <stop stop-color="#F167C9" offset=".918"/>
    <stop stop-color="#F167C9" offset=".922"/>
    <stop stop-color="#F267C9" offset=".926"/>
    <stop stop-color="#F367C8" offset=".93"/>
    <stop stop-color="#F367C8" offset=".934"/>
    <stop stop-color="#F467C8" offset=".938"/>
    <stop stop-color="#F567C8" offset=".941"/>
    <stop stop-color="#F567C7" offset=".945"/>
    <stop stop-color="#F667C7" offset=".949"/>
    <stop stop-color="#F766C7" offset=".953"/>
    <stop stop-color="#F766C7" offset=".957"/>
    <stop stop-color="#F866C6" offset=".961"/>
    <stop stop-color="#F966C6" offset=".965"/>
    <stop stop-color="#F966C6" offset=".969"/>
    <stop stop-color="#FA66C6" offset=".973"/>
    <stop stop-color="#FB66C6" offset=".977"/>
    <stop stop-color="#FB66C5" offset=".98"/>
    <stop stop-color="#FC66C5" offset=".984"/>
    <stop stop-color="#FD66C5" offset=".988"/>
    <stop stop-color="#FD66C5" offset=".992"/>
    <stop stop-color="#FE66C4" offset=".996"/>
    <stop stop-color="#FF66C4" offset="1"/>
    </linearGradient>
    <linearGradient x1="87.897" gradientTransform="matrix(.37039 0 0 .3708 31.128 25.14)" y1="-51.485" x2="409.568" gradientUnits="userSpaceOnUse" y2="545.405" id="f">
    <stop stop-color="#F0F" offset="0"/>
    <stop stop-color="#F0F" offset=".25"/>
    <stop stop-color="#F0F" offset=".317"/>
    <stop stop-color="#F0F" offset=".375"/>
    <stop stop-color="#F0F" offset=".438"/>
    <stop stop-color="#FE01FF" offset=".441"/>
    <stop stop-color="#FD02FF" offset=".445"/>
    <stop stop-color="#FB04FF" offset=".449"/>
    <stop stop-color="#F906FF" offset=".453"/>
    <stop stop-color="#F708FF" offset=".457"/>
    <stop stop-color="#F609FF" offset=".461"/>
    <stop stop-color="#F40BFF" offset=".465"/>
    <stop stop-color="#F20DFF" offset=".469"/>
    <stop stop-color="#F00FFF" offset=".473"/>
    <stop stop-color="#E1F" offset=".477"/>
    <stop stop-color="#EC13FF" offset=".48"/>
    <stop stop-color="#EA15FF" offset=".484"/>
    <stop stop-color="#E817FF" offset=".488"/>
    <stop stop-color="#E619FF" offset=".492"/>
    <stop stop-color="#E41BFF" offset=".496"/>
    <stop stop-color="#E21DFF" offset=".5"/>
    <stop stop-color="#E01FFF" offset=".504"/>
    <stop stop-color="#DE21FF" offset=".508"/>
    <stop stop-color="#DC23FF" offset=".512"/>
    <stop stop-color="#DB24FF" offset=".516"/>
    <stop stop-color="#D926FF" offset=".52"/>
    <stop stop-color="#D728FF" offset=".523"/>
    <stop stop-color="#D52AFF" offset=".527"/>
    <stop stop-color="#D32CFF" offset=".531"/>
    <stop stop-color="#D12EFF" offset=".535"/>
    <stop stop-color="#CF30FF" offset=".539"/>
    <stop stop-color="#CD32FF" offset=".543"/>
    <stop stop-color="#CB34FF" offset=".547"/>
    <stop stop-color="#C936FF" offset=".551"/>
    <stop stop-color="#C738FF" offset=".555"/>
    <stop stop-color="#C53AFF" offset=".559"/>
    <stop stop-color="#C33CFF" offset=".563"/>
    <stop stop-color="#C13EFF" offset=".566"/>
    <stop stop-color="#C03FFF" offset=".57"/>
    <stop stop-color="#BE41FF" offset=".574"/>
    <stop stop-color="#BC43FF" offset=".578"/>
    <stop stop-color="#BA45FF" offset=".582"/>
    <stop stop-color="#B847FF" offset=".586"/>
    <stop stop-color="#B649FF" offset=".59"/>
    <stop stop-color="#B44BFF" offset=".594"/>
    <stop stop-color="#B24DFF" offset=".598"/>
    <stop stop-color="#B04FFF" offset=".602"/>
    <stop stop-color="#AE51FF" offset=".605"/>
    <stop stop-color="#AC53FF" offset=".609"/>
    <stop stop-color="#A5F" offset=".613"/>
    <stop stop-color="#A857FF" offset=".617"/>
    <stop stop-color="#A659FF" offset=".621"/>
    <stop stop-color="#A55AFF" offset=".625"/>
    <stop stop-color="#A35CFF" offset=".629"/>
    <stop stop-color="#A15EFF" offset=".633"/>
    <stop stop-color="#9F60FF" offset=".637"/>
    <stop stop-color="#9D62FF" offset=".641"/>
    <stop stop-color="#9B64FF" offset=".645"/>
    <stop stop-color="#96F" offset=".648"/>
    <stop stop-color="#9768FF" offset=".652"/>
    <stop stop-color="#956AFF" offset=".656"/>
    <stop stop-color="#936CFF" offset=".66"/>
    <stop stop-color="#916EFF" offset=".664"/>
    <stop stop-color="#8F70FF" offset=".668"/>
    <stop stop-color="#8D72FF" offset=".672"/>
    <stop stop-color="#8B73FF" offset=".676"/>
    <stop stop-color="#8A75FF" offset=".68"/>
    <stop stop-color="#87F" offset=".684"/>
    <stop stop-color="#8679FF" offset=".688"/>
    <stop stop-color="#847BFF" offset=".691"/>
    <stop stop-color="#827DFF" offset=".695"/>
    <stop stop-color="#807FFF" offset=".699"/>
    <stop stop-color="#7E81FF" offset=".703"/>
    <stop stop-color="#7C83FF" offset=".707"/>
    <stop stop-color="#7A85FF" offset=".711"/>
    <stop stop-color="#7887FF" offset=".715"/>
    <stop stop-color="#7689FF" offset=".719"/>
    <stop stop-color="#748BFF" offset=".723"/>
    <stop stop-color="#728DFF" offset=".727"/>
    <stop stop-color="#718EFF" offset=".73"/>
    <stop stop-color="#6F90FF" offset=".734"/>
    <stop stop-color="#6D92FF" offset=".738"/>
    <stop stop-color="#6B94FF" offset=".742"/>
    <stop stop-color="#6996FF" offset=".746"/>
    <stop stop-color="#6798FF" offset=".75"/>
    <stop stop-color="#659AFF" offset=".754"/>
    <stop stop-color="#639CFF" offset=".758"/>
    <stop stop-color="#619EFF" offset=".762"/>
    <stop stop-color="#5FA0FF" offset=".766"/>
    <stop stop-color="#5DA2FF" offset=".77"/>
    <stop stop-color="#5BA4FF" offset=".773"/>
    <stop stop-color="#59A6FF" offset=".777"/>
    <stop stop-color="#57A8FF" offset=".781"/>
    <stop stop-color="#56A9FF" offset=".785"/>
    <stop stop-color="#54ABFF" offset=".789"/>
    <stop stop-color="#52ADFF" offset=".793"/>
    <stop stop-color="#50AFFF" offset=".797"/>
    <stop stop-color="#4EB1FF" offset=".801"/>
    <stop stop-color="#4CB3FF" offset=".805"/>
    <stop stop-color="#4AB5FF" offset=".809"/>
    <stop stop-color="#48B7FF" offset=".813"/>
    <stop stop-color="#46B9FF" offset=".816"/>
    <stop stop-color="#4BF" offset=".82"/>
    <stop stop-color="#42BDFF" offset=".824"/>
    <stop stop-color="#40BFFF" offset=".828"/>
    <stop stop-color="#3EC1FF" offset=".832"/>
    <stop stop-color="#3CC3FF" offset=".836"/>
    <stop stop-color="#3BC4FF" offset=".84"/>
    <stop stop-color="#39C6FF" offset=".844"/>
    <stop stop-color="#37C8FF" offset=".848"/>
    <stop stop-color="#35CAFF" offset=".852"/>
    <stop stop-color="#3CF" offset=".855"/>
    <stop stop-color="#31CEFF" offset=".859"/>
    <stop stop-color="#2FD0FF" offset=".863"/>
    <stop stop-color="#2DD2FF" offset=".867"/>
    <stop stop-color="#2BD4FF" offset=".871"/>
    <stop stop-color="#29D6FF" offset=".875"/>
    <stop stop-color="#27D8FF" offset=".879"/>
    <stop stop-color="#25DAFF" offset=".883"/>
    <stop stop-color="#23DCFF" offset=".887"/>
    <stop stop-color="#21DEFF" offset=".891"/>
    <stop stop-color="#20DFFF" offset=".895"/>
    <stop stop-color="#1EE1FF" offset=".898"/>
    <stop stop-color="#1CE3FF" offset=".902"/>
    <stop stop-color="#1AE5FF" offset=".906"/>
    <stop stop-color="#18E7FF" offset=".91"/>
    <stop stop-color="#16E9FF" offset=".914"/>
    <stop stop-color="#14EBFF" offset=".918"/>
    <stop stop-color="#12EDFF" offset=".922"/>
    <stop stop-color="#10EFFF" offset=".926"/>
    <stop stop-color="#0EF1FF" offset=".93"/>
    <stop stop-color="#0CF3FF" offset=".934"/>
    <stop stop-color="#0AF5FF" offset=".938"/>
    <stop stop-color="#08F7FF" offset=".941"/>
    <stop stop-color="#06F9FF" offset=".945"/>
    <stop stop-color="#05FAFF" offset=".949"/>
    <stop stop-color="#03FCFF" offset=".953"/>
    <stop stop-color="#01FEFF" offset=".957"/>
    <stop stop-color="#0FF" offset=".961"/>
    <stop stop-color="#0FF" offset=".969"/>
    <stop stop-color="#0FF" offset="1"/>
    </linearGradient>
    </defs>
    <g clip-path="url(#a)">
        <g clip-path="url(#b)">
        <path fill="url(#c)" d="M.719.125v242.75H243.5V.125zm0 0"/>
    </g>
    </g>
    <g clip-path="url(#d)">
        <g clip-path="url(#e)">
        <path fill="url(#f)" d="M30.016 24.215v195h167.933v-195zm0 0"/>
    </g>
    </g>
    <path fill="#fff" d="m101.613 71.824 69.223 17.871-.074-11.273-69.149-18.574zm69.262 25.028-69.262-17.91v13.535l69.297 18.578zm.074 21.394-69.336-18.613v60.66l-.222 1.187c-2.48 6.676-5.371 13.016-9.891 18.208-4.629 5.375-10.816 9.378-19.742 11.011l-.555.074c-8.332.188-15.148-1.668-20.703-5.117-5.594-3.41-9.852-8.379-13.113-14.46l-.223-.52c-3.148-8.899-3.664-16.906-1.703-24.028 2-7.191 6.445-13.347 13.223-18.539l.445-.297c5.406-2.89 10.89-4.41 16.445-4.449 3.852-.035 7.703.668 11.555 2.078l-.371-83.32c.484-7.043 3.222-11.047 7.484-12.828 3.813-1.633 8.63-1.113 13.852.742l85.484 22.953.332.11c10.93 4.265 10.817 13.164 10.707 22.21v2.188l-.187 109.348-.11.89c-2.113 7.825-6.336 14.98-12 20.133-5.41 4.86-12.074 7.899-19.593 7.973-16.52.183-27.114-8.567-31.856-19.8-2.555-6.044-3.367-12.794-2.441-19.208.886-6.488 3.59-12.68 7.96-17.539 7.188-7.898 18.817-12.234 34.743-8.453zm6.887-2.93a1.02 1.02 0 0 1 0 .485l.223 44.344-4.52-1.446c-15.184-4.855-25.851-1.554-32 5.23-3.445 3.782-5.555 8.712-6.258 13.868-.742 5.226-.113 10.715 1.961 15.574 3.703 8.824 12.149 15.719 25.446 15.57 5.667-.074 10.816-2.41 15-6.191 4.593-4.152 8.039-10.012 9.855-16.426l.184-108.828v-2.223c.074-6.601.148-13.09-6.149-15.648l-85.3-22.879-.258-.11c-3.778-1.374-7-1.855-9.114-.964-1.777.742-2.96 2.855-3.219 6.894l.407 94.184-5.149-2.855c-4.52-2.485-8.965-3.672-13.336-3.633-4.296.035-8.59 1.222-12.925 3.484-5.48 4.227-9.036 9.121-10.555 14.719-1.555 5.676-1.113 12.2 1.445 19.617 2.703 4.969 6.149 9.008 10.555 11.715 4.371 2.707 9.851 4.152 16.629 4.082 7.039-1.375 11.926-4.527 15.52-8.715 3.702-4.266 6.222-9.715 8.41-15.46V50.835l82.964 22.25zm0 0"/>
</svg>